# xmcd
#
# Track frame offsets:
#	150
#	16024
#	30529
#	46967
#	64637
#	89230
#	100339
#	108633
#	120879
#	131767
#	144589
#	178360
#
# Disc length: 2615 seconds
#
# Revision: 0
# Processed by: cddbd v1.5.2PL0 Copyright (c) Steve Scherf et al.
# Submitted via: dBpowerAMP V4.0
#
DISCID=a50a350c
DTITLE=Various Artist - Long Time Comin'
DYEAR=2009
DGENRE=Country
TTITLE0=Train Whistle
TTITLE1=Ten Day Love Affair
TTITLE2=I'm Too Old
TTITLE3=Lonesome On're and Mean
TTITLE4=Long Time Comin'
TTITLE5=Sugar Sweet
TTITLE6=Sean Sweeney
TTITLE7=How Far
TTITLE8=Dolly and Joe
TTITLE9=Pour Me
TTITLE10=Quenby and West Of Wayland - For All My Friends
TTITLE11=Tennessee Wiskey
EXTD=
EXTT0=
EXTT1=
EXTT2=
EXTT3=
EXTT4=
EXTT5=
EXTT6=
EXTT7=
EXTT8=
EXTT9=
EXTT10=
EXTT11=
PLAYORDER=
